<?xml version="1.0" encoding="UTF-8" standalone="no"?>
<svg
   width="260"
   height="260"
   viewBox="0 0 260 260"
   version="1.1"
   id="svg116"
   sodipodi:docname="leadster-logo.svg"
   inkscape:version="1.2.2 (732a01da63, 2022-12-09)"
   xmlns:inkscape="http://www.inkscape.org/namespaces/inkscape"
   xmlns:sodipodi="http://sodipodi.sourceforge.net/DTD/sodipodi-0.dtd"
   xmlns="http://www.w3.org/2000/svg"
   xmlns:svg="http://www.w3.org/2000/svg"
   xmlns:rdf="http://www.w3.org/1999/02/22-rdf-syntax-ns#"
   xmlns:cc="http://creativecommons.org/ns#"
   xmlns:dc="http://purl.org/dc/elements/1.1/">
  <sodipodi:namedview
     id="namedview118"
     pagecolor="#505050"
     bordercolor="#eeeeee"
     borderopacity="1"
     inkscape:showpageshadow="0"
     inkscape:pageopacity="0"
     inkscape:pagecheckerboard="0"
     inkscape:deskcolor="#505050"
     showgrid="false"
     inkscape:zoom="1.4020522"
     inkscape:cx="538.49634"
     inkscape:cy="118.04125"
     inkscape:window-width="2272"
     inkscape:window-height="1383"
     inkscape:window-x="3293"
     inkscape:window-y="302"
     inkscape:window-maximized="0"
     inkscape:current-layer="Path" />
  <!-- Generator: Sketch 55.2 (78181) - https://sketchapp.com -->
  <title
     id="title61">Group</title>
  <desc
     id="desc63">Created with Sketch.</desc>
  <defs
     id="defs85">
    <linearGradient
       x1="0"
       y1="0.49999437"
       x2="0.99999452"
       y2="0.49999437"
       id="linearGradient-1">
      <stop
         stop-color="#2E84FC"
         offset="0%"
         id="stop65" />
      <stop
         stop-color="#035DDB"
         offset="100%"
         id="stop67" />
    </linearGradient>
    <linearGradient
       x1="102.8847"
       y1="194.87263"
       x2="152.85844"
       y2="194.87263"
       id="linearGradient-2"
       gradientTransform="scale(1.6939497,0.59033632)"
       gradientUnits="userSpaceOnUse">
      <stop
         stop-color="#00E1FF"
         offset="0%"
         id="stop70" />
      <stop
         stop-color="#00B8FF"
         offset="100%"
         id="stop72" />
    </linearGradient>
    <linearGradient
       x1="163.78197"
       y1="37.559673"
       x2="237.3389"
       y2="37.559673"
       id="linearGradient-3"
       gradientTransform="scale(0.849334,1.1773931)"
       gradientUnits="userSpaceOnUse">
      <stop
         stop-color="#00E1FF"
         offset="0%"
         id="stop75" />
      <stop
         stop-color="#00B8FF"
         offset="100%"
         id="stop77" />
    </linearGradient>
    <linearGradient
       x1="67.540848"
       y1="37.552711"
       x2="141.06573"
       y2="37.552711"
       id="linearGradient-4"
       gradientTransform="scale(0.84917649,1.1776115)"
       gradientUnits="userSpaceOnUse">
      <stop
         stop-color="#00E1FF"
         offset="0%"
         id="stop80" />
      <stop
         stop-color="#00B8FF"
         offset="100%"
         id="stop82" />
    </linearGradient>
  </defs>
  <g
     id="Page-1"
     stroke="none"
     stroke-width="1"
     fill="none"
     fill-rule="evenodd">
    <g
       id="LEADSTER_LOGO_01"
       transform="translate(0,-569)"
       fill-rule="nonzero">
      <g
         id="Group"
         transform="translate(0,569)">
        <g
           id="Path">
          <path
             d="m 176.28,122.42 v 0 c 2.64,4.56 7.5,7.37 12.77,7.37 h 55.13 c 8.15,0 14.75,-6.6 14.75,-14.75 v 0 c 0,-8.15 -6.6,-14.75 -14.75,-14.75 h -55.13 c -11.35,0 -18.45,12.29 -12.77,22.13 z"
             fill="url(#linearGradient-2)"
             id="path89"
             style="fill:url(#linearGradient-2)" />
          <path
             d="m 194.2,2.9 v 0 c -7.06,-4.07 -16.08,-1.66 -20.15,5.4 l -32.96,57.09 c -4.07,7.06 -1.66,16.08 5.4,20.15 v 0 c 7.05,4.07 16.07,1.65 20.15,-5.4 L 199.6,23.05 C 203.67,16 201.26,6.98 194.2,2.9 Z"
             fill="url(#linearGradient-3)"
             id="path91"
             style="fill:url(#linearGradient-3)" />
          <path
             d="M 117.79,65.4 84.89,8.3 C 80.82,1.25 71.8,-1.17 64.74,2.9 h -0.01 c -7.06,4.07 -9.47,13.09 -5.4,20.15 l 32.9,57.09 c 2.63,4.56 7.5,7.370006 12.77,7.370006 h 0.01 C 116.37,87.52 123.47,75.23 117.79,65.4 Z"
             fill="url(#linearGradient-4)"
             id="path93"
             style="fill:url(#linearGradient-4)" />
        </g>
      </g>
    </g>
  </g>
  <metadata
     id="metadata325">
    <rdf:RDF>
      <cc:Work
         rdf:about="">
        <dc:title>Group</dc:title>
      </cc:Work>
    </rdf:RDF>
  </metadata>
</svg>
